<?xml version="1.0" encoding="utf-8"?>
<!-- Generator: Adobe Illustrator 26.0.3, SVG Export Plug-In . SVG Version: 6.00 Build 0)  -->
<svg version="1.1" id="Calque_1" xmlns="http://www.w3.org/2000/svg" xmlns:xlink="http://www.w3.org/1999/xlink" x="0px" y="0px"
	 viewBox="0 0 300 300" style="enable-background:new 0 0 300 300;" xml:space="preserve">
<style type="text/css">
	.st0{fill:#010202;}
</style>
<g>
	<g>
		<g>
			<path class="st0" d="M91.85,148.93c-0.48,0-0.66-0.21-0.54-0.63l7.5-53.15H86.97c-0.48,0-0.66-0.21-0.54-0.63l1.17-8.49
				c0.12-0.3,0.3-0.45,0.54-0.45h35.52c0.48,0,0.66,0.21,0.54,0.63l-1.17,8.49c-0.12,0.3-0.3,0.45-0.54,0.45h-12.2l-7.5,53.33
				c-0.12,0.3-0.3,0.45-0.54,0.45H91.85z"/>
			<path class="st0" d="M108.65,148.93c-0.48,0-0.66-0.24-0.54-0.72l19.52-62.28c0-0.24,0.15-0.36,0.45-0.36h15.28
				c0.36,0,0.54,0.18,0.54,0.54l1.9,62.28c0,0.36-0.18,0.54-0.54,0.54h-10.49c-0.36,0-0.54-0.18-0.54-0.54l-0.09-8.14h-12.02
				l-2.53,8.32c0,0.24-0.15,0.36-0.45,0.36H108.65z M133.86,130.76l0.27-33.44L125,130.76H133.86z"/>
			<path class="st0" d="M147.13,148.93c-0.6,0-0.75-0.27-0.45-0.81l16.45-30.82l-7.77-31.09c-0.12-0.42,0.06-0.63,0.54-0.63h10.58
				c0.24,0,0.42,0.15,0.54,0.45l3.71,19.16l9.22-19.34c0.12-0.18,0.3-0.27,0.54-0.27h10.39c0.6,0,0.75,0.27,0.45,0.81l-16.45,30.91
				l7.77,31c0.12,0.42-0.06,0.63-0.54,0.63h-10.48c-0.24,0-0.42-0.15-0.54-0.45l-3.8-19.07l-9.13,19.25
				c-0.06,0.18-0.24,0.27-0.54,0.27H147.13z"/>
			<path class="st0" d="M184.68,148.93c-0.48,0-0.66-0.21-0.54-0.63l8.77-62.28c0.12-0.3,0.3-0.45,0.54-0.45h10.39
				c0.48,0,0.66,0.21,0.54,0.63l-8.77,62.28c-0.12,0.3-0.3,0.45-0.54,0.45H184.68z"/>
		</g>
		<g>
			<path class="st0" d="M20.75,213.56c-0.48,0-0.66-0.24-0.54-0.72l19.52-62.28c0-0.24,0.15-0.36,0.45-0.36h15.28
				c0.36,0,0.54,0.18,0.54,0.54l1.9,62.28c0,0.36-0.18,0.54-0.54,0.54H46.87c-0.36,0-0.54-0.18-0.54-0.54l-0.09-8.14H34.21
				l-2.53,8.32c0,0.24-0.15,0.36-0.45,0.36H20.75z M45.96,195.4l0.27-33.44l-9.13,33.44H45.96z"/>
			<path class="st0" d="M59.78,213.46c-0.48,0-0.66-0.21-0.54-0.63l8.77-62.28c0.12-0.3,0.3-0.45,0.54-0.45h10.39
				c0.48,0,0.66,0.21,0.54,0.63l-7.5,53.24h13.83c0.48,0,0.66,0.21,0.54,0.63L85.18,213c-0.12,0.3-0.3,0.45-0.54,0.45H59.78z"/>
			<path class="st0" d="M86.97,213.46c-0.48,0-0.66-0.21-0.54-0.63l8.77-62.28c0.12-0.3,0.3-0.45,0.54-0.45h10.39
				c0.48,0,0.66,0.21,0.54,0.63l-7.5,53.24H113c0.48,0,0.66,0.21,0.54,0.63l-1.17,8.41c-0.12,0.3-0.3,0.45-0.54,0.45H86.97z"/>
			<path class="st0" d="M113.46,213.46c-0.48,0-0.66-0.24-0.54-0.72l19.52-62.28c0-0.24,0.15-0.36,0.45-0.36h15.28
				c0.36,0,0.54,0.18,0.54,0.54l1.9,62.28c0,0.36-0.18,0.54-0.54,0.54h-10.49c-0.36,0-0.54-0.18-0.54-0.54l-0.09-8.14h-12.02
				l-2.53,8.32c0,0.24-0.15,0.36-0.45,0.36H113.46z M138.68,195.29l0.27-33.44l-9.13,33.44H138.68z"/>
			<path class="st0" d="M151.85,213.46c-0.48,0-0.66-0.21-0.54-0.63l8.77-62.28c0.12-0.3,0.3-0.45,0.54-0.45h9.85
				c0.18,0,0.33,0.06,0.45,0.18l10.85,14.92l2.08-14.64c0.12-0.3,0.3-0.45,0.54-0.45h10.39c0.48,0,0.66,0.21,0.54,0.63L186.56,213
				c-0.12,0.3-0.3,0.45-0.54,0.45h-10.39c-0.48,0-0.66-0.21-0.54-0.63l4.97-35.43l-10.3-14.19l-6.96,49.8
				c-0.12,0.3-0.3,0.45-0.54,0.45H151.85z"/>
		</g>
	</g>
	<g>
		
			<rect x="247.51" y="189.47" transform="matrix(0.9972 -0.0744 0.0744 0.9972 -13.3955 19.8004)" class="st0" width="23.36" height="0.61"/>
		<path class="st0" d="M244.98,188.17l0.07,0.61c0.21-0.03,21.5-2.6,28.12-2.94l-0.03-0.61C266.5,185.57,245.2,188.15,244.98,188.17
			z"/>
		<path class="st0" d="M270.62,180.35c0.08,0,0.15,0,0.21,0l0.01-0.61c-3.25-0.08-24.93,1.74-25.85,1.82l0.05,0.61
			C245.27,182.15,266.77,180.35,270.62,180.35z"/>
		<path class="st0" d="M271.94,177.02l0.02-0.61c-2.63-0.11-24.43,2.22-25.36,2.32l0.06,0.61
			C246.89,179.32,269.36,176.89,271.94,177.02z"/>
		<path class="st0" d="M242.36,154.17l-0.32,0.52c0.07,0.05,7.53,4.81,11.38,14.38l0.57-0.23
			C250.05,159.08,242.43,154.22,242.36,154.17z"/>
		<path class="st0" d="M247.78,153.38c-0.32,0.15-0.55,0.43-0.62,0.78c-0.07,0.34,0.03,0.69,0.27,0.95
			c1.03,1.11,2.25,2.45,2.25,2.45l0.45-0.41c0,0-1.22-1.35-2.25-2.46c-0.1-0.11-0.15-0.26-0.12-0.42c0.03-0.15,0.13-0.28,0.27-0.34
			c2.48-1.14,9.56-4.05,21.6-6.47l-0.12-0.6C257.41,149.3,250.28,152.23,247.78,153.38z"/>
		<path class="st0" d="M222.56,125.37c0.01,0.04,1.02,3.58,1.16,10.41l0.61-0.01c-0.14-6.92-1.14-10.42-1.19-10.57L222.56,125.37z"
			/>
		<path class="st0" d="M260.33,125.17l5.23,0.42l0.05-0.61l-5.23-0.42c-0.19-0.02-0.36-0.11-0.47-0.26
			c-0.12-0.15-0.16-0.34-0.13-0.52l0.26-1.47l-0.6-0.11l-0.26,1.47c-0.06,0.35,0.03,0.72,0.24,1
			C259.64,124.96,259.98,125.14,260.33,125.17z"/>
		<path class="st0" d="M279.11,154.21c-0.35-7.77-2.06-9.56-4.66-12.26c-0.48-0.5-0.99-1.03-1.53-1.64
			c-1.27-1.43-3.59-3.44-6.04-5.57c-3.44-2.98-7.72-6.69-7.64-7.78c0-0.05,0.02-0.08,0.06-0.11c0.55-0.34,2.34-0.29,4.23-0.23
			c3.26,0.1,7.32,0.24,8.84-1.47c0.52-0.58,0.71-1.33,0.58-2.24c-0.86-5.82-9.89-7.76-12.08-7.92c-0.44-0.04-0.85,0.11-1.2,0.44
			c-1.52,1.41-1.72,5.98-1.74,7.22h-1.75c-16.2-26.26-20.93-27.33-23.76-27.98c-0.33-0.07-0.63-0.14-0.98-0.26
			c-6.33-0.78-12.77-1.25-13.82-1.33l-1.72-2.9c-1.02-1.72-2.82-2.8-4.81-2.89l-2.06-0.09l0.21-1.53l-0.78-0.11l-17.82,127.89
			l0.78,0.11l3.17-22.75c2.55-0.08,9.9-0.28,17.24-0.42v11.16c-10.78,0.36-18.11,0.78-18.21,0.78l0.03,0.61
			c0.16-0.01,16-0.91,35.54-1.21c10.04-0.15,13.38,0.88,16.33,1.78c2.11,0.65,4.03,1.23,7.87,1.35c-0.33,5.55,3.53,6.44,3.6,6.45
			c0.36,0.04,6.05,0.63,11.18,0.63c2.66,0,5.18-0.16,6.7-0.65c4.42-1.41,3.73-9.76,3.62-10.83c0.85-0.87,1.33-1.9,1.53-3.13
			C280.79,192.59,279.29,158.13,279.11,154.21z M255.75,123.12l0.09,0.15h2.69v-0.31c0-1.57,0.28-5.9,1.55-7.08
			c0.23-0.21,0.47-0.3,0.74-0.28c2.06,0.16,10.41,1.93,11.46,7.14c-2.31,0.57-8.73,0.2-8.79,0.2l-0.04,0.61
			c0.16,0.01,2.17,0.13,4.35,0.13c1.7,0,3.45-0.08,4.53-0.33c0.02,0.56-0.09,1.04-0.42,1.41c-1.33,1.49-5.23,1.36-8.37,1.27
			c-2.16-0.07-3.87-0.12-4.58,0.32c-0.21,0.13-0.33,0.33-0.35,0.57c-0.08,1.09,2.03,3.18,5.63,6.35l0,0
			c0.07,0.07,6.74,7.08,6.3,10.97c-0.62-0.03-1.27-0.02-2,0.07c-2.83,0.36-10.27,2.6-16.72,4.66c-5.19-6.19-35.87-7.33-50.36-7.52
			l2.54-18.23c43.62,0.39,49.42,1.15,50.17,1.32c2.97,5.95-9.77,19.64-9.89,19.77l0.44,0.42c0.55-0.58,13.32-14.31,9.93-20.59l0,0
			c-0.49-0.94-11.48-21.81-21.26-28.56C236.34,96.54,241.61,100.18,255.75,123.12z M273.39,145.75c0.9,0.74,1.05,1.72,1.08,2.15
			c0.01,0.07,1.47,6.84,0.02,10.34c-1.17,2.82-16.12,2.49-21.85,2.14c-0.03,0-2.95,0.33-7.68-6.14c-0.17-0.22-0.22-0.43-0.15-0.67
			c0.46-1.49,4.88-3.24,7.25-4.03c6.43-2.05,13.83-4.28,16.57-4.62C270.79,144.64,272.39,144.92,273.39,145.75z M204.1,122.6
			l3.79-27.17c9.88,0.4,21.96,1.18,26.14,2.65c0.9,1.08,12.9,15.62,15.41,25.46C243.54,123.22,230.93,122.84,204.1,122.6z
			 M231.29,95.01c9.22,4.63,20.68,25.39,22.55,28.87c-0.62-0.08-1.75-0.19-3.76-0.3c-2.53-10.32-15.51-25.8-15.64-25.96l-0.05-0.06
			l-0.08-0.03c-4.21-1.53-16.38-2.32-26.34-2.72l0.05-0.34c5.51,0.26,10.11,0.55,10.2,0.56l0.58,0.04L218,93.73
			C219.8,93.86,225.61,94.31,231.29,95.01z M211.06,87.91c1.79,0.08,3.4,1.05,4.32,2.59l2.3,3.87c-1.4-0.09-5.2-0.31-9.57-0.52
			l0.24-1.71l0.02-0.02l1.25,1.27l1.4,0.09l-1.92-1.92l2.14-1.68l-1.4-0.09l-1.31,1.04l0.42-3.04L211.06,87.91z M201.62,171.98
			c1.56-1.88,2.15-4.13,1.71-6.49c-0.63-3.38-2.43-5.33-4.3-6.49l0.15-1.11c4.1,2.51,5.55,6.92,5.57,6.98l0.06,0.21l28.99,1.13
			l-28.64,0.82l-0.2,0.01l-0.08,0.18c-2.24,5.3-5.18,7.52-7.24,8.45c-0.35,0.16-0.68,0.27-1,0.37l0.11-0.77
			C198.5,174.62,200.31,173.56,201.62,171.98z M196.86,174.58l2.08-14.96c1.66,1.1,3.21,2.92,3.79,5.98
			c0.41,2.21-0.12,4.23-1.58,5.99C199.98,172.99,198.4,173.96,196.86,174.58z M197.87,176.24c2.15-0.95,5.19-3.22,7.52-8.6
			l37.46-1.07l0-0.61l-37.58-1.47c-0.35-0.95-2.05-4.94-5.99-7.24l0.56-4.04c10.66,0.21,31.8,0.88,36.83,3.01
			c4.85,2.06,10.5,6.3,11.46,10.77c0.43,2.01-0.14,3.89-1.71,5.59c-4.93,5.33-39.92,5.46-50.02,5.38l0.18-1.27
			C196.97,176.58,197.4,176.45,197.87,176.24z M228.88,201.13c-5.94,0.09-11.53,0.24-16.44,0.4v-11.15
			c6.13-0.11,12.15-0.17,15.22-0.04c0.43,0.02,0.81,0.07,1.22,0.1V201.13z M227.68,189.73c-6.81-0.27-28.04,0.33-33,0.47l0.39-2.81
			c6.85-0.57,36.95-2.88,43.18-0.51c2.95,1.12,6.54,3.24,10.01,5.29c5.07,2.99,9.86,5.82,12.89,5.82c4.17,0,10.81-0.49,12.94-0.65
			c-6.39,4.5-13.83,3.49-13.91,3.47l-0.09,0.6c0.03,0,0.81,0.11,2.08,0.11c2.97,0,8.58-0.59,13.34-4.5
			c1.01-0.83,1.65-2.07,1.76-3.42c0.15-1.89,0.34-8.54-3.57-14.75l-0.52,0.32c3.81,6.05,3.62,12.53,3.48,14.38
			c-0.09,1.18-0.65,2.27-1.54,2.99c-0.12,0.1-0.25,0.19-0.38,0.28l-0.01-0.17c-0.09,0.01-8.62,0.7-13.59,0.7
			c-2.86,0-7.8-2.92-12.58-5.74c-3.49-2.06-7.11-4.2-10.11-5.34c-6.41-2.44-36.12-0.14-43.31,0.45l0.7-5.03
			c5.85-0.32,22.58-1.23,36.16-1.79c13.77-0.58,16.8-1.83,19.22-2.83c0.54-0.22,1.04-0.43,1.63-0.61c3.16-0.99,13.84-2.39,17.3-2.41
			c8.79,3.18,8.51,9.24,8.22,15.66c-0.04,0.94-0.09,1.87-0.1,2.79c-0.08,5.48-0.57,5.63-5.26,7.09c-1.2,0.37-2.7,0.84-4.5,1.49
			c-10.81,3.19-13.31,1.49-17.85-1.6c-0.98-0.67-2.09-1.42-3.39-2.2l-1.22-0.73C239.45,192.64,235.08,190.02,227.68,189.73z
			 M256.91,210.66c-0.69-0.21-3.19-1.34-2.91-5.79c0.27,0,0.51,0.01,0.79,0.01c1.12,0,2.41-0.04,3.86-0.12
			C258.69,205.7,258.65,208.78,256.91,210.66z M274.68,210.72c-3.84,1.22-14.61,0.28-17.07,0.04c1.66-2.07,1.7-5.06,1.65-6.02
			c0.76-0.04,1.49-0.09,2.2-0.14c0,0.81-0.07,3.14-0.79,4.88l0.57,0.23c0.77-1.89,0.84-4.34,0.83-5.15c0.66-0.05,1.3-0.1,1.91-0.15
			c0.01,0.57-0.01,3.17-0.79,5.07l0.57,0.23c0.86-2.11,0.84-4.9,0.83-5.36c0.66-0.06,1.26-0.13,1.87-0.19c0,0.93-0.09,3.42-0.79,5.3
			l0.57,0.25c0.77-2.05,0.83-4.69,0.83-5.62c0.93-0.11,1.82-0.23,2.63-0.35c0.09,0.99,0.3,3.98-0.42,5.74l0.57,0.23
			c0.79-1.92,0.56-5.05,0.46-6.06c1.09-0.18,2.06-0.39,2.94-0.62c-0.01,1.37-0.09,4.75-0.79,6.45l0.57,0.23
			c0.77-1.89,0.83-5.57,0.83-6.84c1.76-0.51,3.09-1.12,4.05-1.88C278.05,202.96,278.22,209.59,274.68,210.72z M279.41,197.25
			c-0.64,3.93-3.87,5.97-20.49,6.9c-7.84,0.45-10.34-0.33-13.22-1.22c-2.96-0.91-6.32-1.95-16.21-1.81v-10.63
			c6.17,0.62,10.31,3.07,16.27,6.64l1.22,0.73c1.28,0.77,2.39,1.52,3.36,2.18c2.93,2,5.04,3.43,8.91,3.43c2.33,0,5.3-0.52,9.48-1.75
			c1.8-0.66,3.29-1.12,4.49-1.49c4.75-1.48,5.61-1.74,5.69-7.67c0.01-0.92,0.06-1.84,0.1-2.77c0.29-6.37,0.6-12.95-8.67-16.28
			l-0.1-0.02c-3.44,0-14.33,1.43-17.54,2.44c-0.61,0.19-1.13,0.4-1.68,0.63c-2.39,0.98-5.35,2.21-19.02,2.78
			c-13.48,0.57-30.08,1.46-36.05,1.79l0.36-2.55c1.06,0.01,2.38,0.02,3.94,0.02c13.25,0,41.99-0.59,46.62-5.6
			c1.71-1.85,2.34-3.91,1.86-6.13c-1.01-4.68-6.83-9.08-11.82-11.2c-5.18-2.2-26.26-2.87-36.98-3.07l1.47-10.53
			c14.22,0.21,44.38,1.33,49.8,7.1c-5.31,1.7-9.8,3.22-10.2,3.36l0.2,0.58c0.07-0.02,2.07-0.7,4.99-1.66
			c-0.98,0.61-1.74,1.27-1.95,1.95c-0.13,0.43-0.05,0.86,0.25,1.22c5,6.83,8.13,6.4,8.19,6.38c0.83,0.05,4.17,0.25,8.04,0.25
			c6.06,0,13.4-0.48,14.35-2.76c1.53-3.68,0.08-10.42,0.02-10.66c-0.03-0.47-0.21-1.64-1.3-2.54c-0.66-0.55-1.55-0.86-2.62-0.99
			c0.26-2.46-1.89-5.85-3.8-8.32c2.09,1.82,4.01,3.51,5.1,4.74c0.55,0.62,1.07,1.16,1.55,1.66c2.59,2.7,4.15,4.32,4.49,11.87
			C278.68,158.15,280.17,192.55,279.41,197.25z"/>
		
			<rect x="211.62" y="88.61" transform="matrix(0.0704 -0.9975 0.9975 0.0704 108.2262 294.4082)" class="st0" width="0.91" height="1.04"/>
		
			<rect x="210.1" y="91.24" transform="matrix(0.0703 -0.9975 0.9975 0.0703 105.4574 296.6705)" class="st0" width="3.59" height="1.04"/>
	</g>
</g>
</svg>
